# AST/ASF file generated using VICON BodyLanguage
# -----------------------------------------------
:version 1.10
:name VICON
:units
  mass 1.0
  length 0.45
  angle deg
:documentation
   .ast/.asf automatically generated from VICON data using
   VICON BodyBuilder and BodyLanguage model FoxedUp or BRILLIANT.MOD
:root
   order TX TY TZ RX RY RZ
   axis XYZ
   position 0 0 0  
   orientation 0 0 0 
:bonedata
  begin
     id 1 
     name lhipjoint
     direction 0.440178 -0.822639 0.359871 
     length 2.53113 
     axis 0 0 0  XYZ
  end
  begin
     id 2 
     name lfemur
     direction 0.34202 -0.939693 0  
     length 7.88132  
     axis 0 0 20  XYZ
    dof rx ry rz
    limits (-160.0 20.0)
           (-70.0 70.0)
           (-60.0 70.0)
  end
  begin
     id 3 
     name ltibia
     direction 0.34202 -0.939693 0   
     length 8.43783   
     axis 0 0 20   XYZ
    dof rx
    limits (-10.0 170.0)
  end
  begin
     id 4 
     name lfoot
     direction 0.0886351 -0.243523 0.965837   
     length 2.63414   
     axis -90 7.62852e-016 20   XYZ
    dof rx rz
    limits (-45.0 90.0)
           (-70.0 20.0)
  end
  begin
     id 5 
     name ltoes
     direction 1.53703e-011 -4.21717e-011 1   
     length 1.31427   
     axis -90 7.62852e-016 20   XYZ
    dof rx
    limits (-90.0 20.0)
  end
  begin
     id 6 
     name rhipjoint
     direction -0.399779 -0.839773 0.367367   
     length 2.47948  
     axis 0 0 0  XYZ 
  end
  begin
     id 7 
     name rfemur
     direction -0.34202 -0.939693 0   
     length 7.74806   
     axis 0 0 -20   XYZ
    dof rx ry rz
    limits (-160.0 20.0)
           (-70.0 70.0)
           (-70.0 60.0)
  end
  begin
     id 8 
     name rtibia
     direction -0.34202 -0.939693 0   
     length 8.74432   
     axis 0 0 -20   XYZ
    dof rx
    limits (-10.0 170.0)
 end
 begin
     id 9 
     name rfoot
     direction -0.108514 -0.298139 0.948334   
     length 2.66102  
     axis -90 -7.62852e-016 -20   XYZ
    dof rx rz
    limits (-45.0 90.0)
           (-20.0 70.0)
  end
  begin
     id 10 
     name rtoes
     direction -1.53392e-011 -4.22077e-011 1   
     length 1.31983   
     axis -90 -7.62852e-016 -20   XYZ
    dof rx
    limits (-90.0 20.0)
  end
  begin
     id 11 
     name lowerback
     direction 0.0113257 0.999866 0.0118602   
     length 2.58694   
     axis 0 0 0   XYZ
    dof rx ry rz
    limits (-20.0 45.0)
           (-30.0 30.0)
           (-30.0 30.0)
  end
  begin
     id 12 
     name upperback
     direction -0.0164747 0.995193 -0.0965375   
     length 2.52368   
     axis 0 0 0   XYZ
    dof rx ry rz
    limits (-20.0 45.0)
           (-30.0 30.0)
           (-30.0 30.0)
  end
  begin
     id 13 
     name thorax
     direction -0.0194301 0.99433 -0.104552   
     length 2.56099   
     axis 0 0 0   XYZ
    dof rx ry rz
    limits (-20.0 45.0)
           (-30.0 30.0)
           (-30.0 30.0)
  end
  begin
     id 14 
     name lowerneck
     direction 0.0148543 0.995587 -0.092657   
     length 1.71582   
     axis 0 0 0   XYZ
    dof rx ry rz
    limits (-20.0 45.0)
           (-30.0 30.0)
           (-30.0 30.0)
  end
  begin
     id 15 
     name upperneck
     direction -0.0135467 0.993656 -0.111639   
     length 1.68937   
     axis 0 0 0   XYZ
    dof rx ry rz
    limits (-20.0 45.0)
           (-30.0 30.0)
           (-30.0 30.0)
  end
  begin
     id 16
     name head
     direction -0.00615349 0.999547 -0.029448  
     length 1.7462  
     axis 0 0 0   XYZ
    dof rx ry rz
    limits (-20.0 45.0)
           (-30.0 30.0)
           (-30.0 30.0)
  end
  begin
     id 17 
     name lclavicle
     direction 0.988267 0.149885 0.0293713  
     length 4.47222  
     axis 0 0 0   XYZ
    dof ry rz
    limits (-20.0 10.0)
           (0.0 20.0)
  end
  begin
     id 18 
     name lhumerus
     direction 1 -4.48986e-011 -1.14833e-027   
     length 5.37148   
     axis 180 -30 -90   XYZ
    dof rx ry rz
    limits (-60.0 90.0)
           (-90.0 90.0)
           (-90.0 90.0)
  end
  begin
     id 19
     name lradius
     direction 0.999998 0.00170963 -0.000987055   
     length 3.94212   
     axis 180 -30 -90   XYZ
    dof rx
    limits (-10.0 170.0)
  end
  begin
     id 20
     name lwrist
     direction 0.999998 7.53149e-005 -0.00194706   
     length 1.97106   
     axis 4.65056e-015 90 90   XYZ
    dof ry
    limits (-180.0 0.0)
 end
  begin
     id 21 
     name lhand
     direction 1 -4.48973e-011 -1.31746e-026   
     length 1.17917   
     axis 8.4065e-015 90 90   XYZ
    dof rx rz
    limits (-90.0 90.0)
           (-45.0 45.0)
  end
  begin
     id 22 
     name lfingers
     direction 1 -4.49107e-011 -2.63492e-026   
     length 0.950679   
     axis 1.6813e-014 90 90   XYZ
    dof rx
    limits (0.0 90.0)
  end
  begin
     id 23
     name lthumb
     direction 0.707107 -6.35048e-011 0.707107   
     length 1.36499   
     axis -90 45 2.85299e-015   XYZ
    dof rx rz
    limits (-45.0 45.0)
           (-45.0 45.0)
  end
  begin
     id 24 
     name rclavicle
     direction -0.996699 0.0642895 -0.0495725   
     length 4.62611  
     axis 0 0 0   XYZ 
    dof ry rz
    limits (-10.0 20.0)
           (-20.0 0.0)
  end
  begin
     id 25 
     name rhumerus
     direction -1 -4.48919e-011 -2.41059e-027  
     length 5.4981   
     axis 180 30 90   XYZ
    dof rx ry rz
    limits (-90.0 60.0)
           (-90.0 90.0)
           (-90.0 90.0)
  end
  begin
     id 26 
     name rradius
     direction -0.999999 0.00118101 -0.000681858   
     length 3.48381   
     axis 180 30 90   XYZ
    dof rx
    limits (-10.0 170.0)
  end
  begin
     id 27 
     name rwrist
     direction -0.999999 0.000321823 -0.00132288   
     length 1.7419   
     axis 4.65056e-015 -90 -90   XYZ
    dof ry
    limits (-180.0 0.0)
  end
  begin
     id 28
     name rhand
     direction -1 -4.49022e-011 -1.31746e-026   
     length 1.34932   
     axis 8.4065e-015 -90 -90   XYZ
    dof rx rz
    limits (-90.0 90.0)
           (-45.0 45.0)
  end
  begin
     id 29
     name rfingers
     direction -1 -4.49178e-011 -2.63492e-026   
     length 1.08785   
     axis 1.6813e-014 -90 -90   XYZ
    dof rx
    limits (0.0 90.0)
  end
  begin
     id 30
     name rthumb
     direction -0.707107 -6.34713e-011 0.707107   
     length 1.56195   
     axis -90 -45 -2.85299e-015   XYZ
    dof rx rz
    limits (-45.0 45.0)
           (-45.0 45.0)
  end
:hierarchy
  begin
    root lhipjoint rhipjoint lowerback
    lhipjoint lfemur
    lfemur ltibia
    ltibia lfoot
    lfoot ltoes
    rhipjoint rfemur
    rfemur rtibia
    rtibia rfoot
    rfoot rtoes
    lowerback upperback
    upperback thorax
    thorax lowerneck lclavicle rclavicle
    lowerneck upperneck
    upperneck head
    lclavicle lhumerus
    lhumerus lradius
    lradius lwrist
    lwrist lhand lthumb
    lhand lfingers
    rclavicle rhumerus
    rhumerus rradius
    rradius rwrist
    rwrist rhand rthumb
    rhand rfingers
  end

#!OML:ASF X:\für Bonn\!DataBase\2005_08_10_Bjorn_Final\c3d\bjorn.ASF
:FULLY-SPECIFIED
:DEGREES
1
root -14.5557 18.7039 1.66786 328.048 96.0973 333.075
lowerback 8.21936 -1.12269 3.72676
upperback 16.8738 0.0505381 -1.29358
thorax 13.9318 1.21629 -3.35411
lowerneck 12.7438 -2.41895 6.14344
upperneck -9.43294 -2.66258 -4.18078
head -5.05592 -1.24691 -2.08672
rclavicle 1.5704e-014 -2.38542e-015
rhumerus -22.2405 -20.0734 -82.733
rradius 45.7155
rwrist 1.72536
rhand -7.94025 13.0637
rfingers 7.12502
rthumb 17.9663 -16.1265
lclavicle 1.5704e-014 -2.38542e-015
lhumerus -22.5368 -2.24192 82.2385
lradius 48.9557
lwrist -10.1594
lhand -39.5745 -12.6438
lfingers 7.12502
lthumb -12.5576 16.9588
rfemur -16.2029 -3.91543 16.5625
rtibia 43.2753
rfoot -18.3454 11.0085
rtoes -11.5682
lfemur -39.5441 8.61972 -16.6587
ltibia 92.7297
lfoot -1.35813 -2.84531
ltoes -13.4034
2
root -14.5212 18.703 1.67122 328.261 96.0643 333.395
lowerback 8.35986 -1.15487 3.90944
upperback 16.9417 0.0156826 -1.18611
thorax 13.9313 1.22016 -3.33586
lowerneck 12.7539 -2.31489 6.07344
upperneck -9.41187 -2.57489 -4.52159
head -5.04994 -1.17763 -2.18991
rclavicle -4.96962e-015 -7.15625e-015
rhumerus -22.1645 -20.0418 -82.6711
rradius 45.9582
rwrist 1.70632
rhand -7.94534 13.1781
rfingers 7.12502
rthumb 17.9614 -16.0125
lclavicle -4.96962e-015 -7.15625e-015
lhumerus -22.6015 -2.32392 82.2987
lradius 49.1149
lwrist -10.1213
lhand -39.5973 -12.6344
lfingers 7.12502
lthumb -12.5795 16.9669
rfemur -15.9506 -3.89791 16.6238
rtibia 43.2545
rfoot -18.4627 11.0323
rtoes -11.4092
lfemur -40.3753 8.83073 -16.7961
ltibia 92.6865
lfoot -1.81483 -2.34088
ltoes -12.4004
3
root -14.4881 18.7 1.67387 328.531 96.0752 333.76
lowerback 8.49918 -1.19546 4.09631
upperback 17.0097 -0.027023 -1.09952
thorax 13.9316 1.22316 -3.3432
lowerneck 12.6788 -2.21093 6.03157
upperneck -9.34124 -2.48115 -4.82707
head -5.01385 -1.1098 -2.28741
rclavicle 3.18055e-015 1.07344e-014
rhumerus -22.0638 -20.0481 -82.649
rradius 46.1871
rwrist 1.6696
rhand -7.95616 13.2861
rfingers 7.12502
rthumb 17.951 -15.9055
lclavicle 3.18055e-015 1.07344e-014
lhumerus -22.6289 -2.41589 82.3397
lradius 49.2671
lwrist -10.0841
lhand -39.6379 -12.6326
lfingers 7.12502
lthumb -12.6187 16.9663
rfemur -15.7127 -3.93233 16.6673
rtibia 43.2384
rfoot -18.6116 11.0202
rtoes -11.6021
lfemur -41.2049 8.97502 -16.965
ltibia 92.5417
lfoot -2.26282 -1.76239
ltoes -11.2918
4
root -14.453 18.6968 1.67633 328.777 96.0436 334.104
lowerback 8.63459 -1.22113 4.30211
upperback 17.0632 -0.0504931 -1.0233
thorax 13.9186 1.23747 -3.37217
lowerneck 12.6085 -2.10852 6.00084
upperneck -9.24684 -2.37996 -5.08322
head -4.9701 -1.04223 -2.37153
rclavicle -6.36111e-015 -7.55382e-015
rhumerus -21.9864 -20.0507 -82.6348
rradius 46.3538
rwrist 1.58782
rhand -7.9227 13.4367
rfingers 7.12502
rthumb 17.9832 -15.7519
lclavicle -6.36111e-015 -7.55382e-015
lhumerus -22.688 -2.53172 82.3504
lradius 49.3735
lwrist -10.0641
lhand -39.7309 -12.6684
lfingers 7.12502
lthumb -12.7083 16.9249
rfemur -15.4628 -3.89708 16.7302
rtibia 43.2141
rfoot -18.7385 11.022
rtoes -11.4697
lfemur -41.9636 9.13673 -17.1041
ltibia 92.289
lfoot -2.72935 -1.1552
ltoes -10.2807
5
root -14.4185 18.694 1.67845 329.301 96.0183 334.735
lowerback 8.76981 -1.26126 4.50969
upperback 17.1243 -0.095201 -0.910111
thorax 13.913 1.23897 -3.36119
lowerneck 12.5446 -2.01245 5.86216
upperneck -9.18601 -2.30441 -5.32615
head -4.93772 -0.984125 -2.43173
rclavicle 1.59028e-015 1.35174e-014
rhumerus -21.9391 -19.9594 -82.5765
rradius 46.5792
rwrist 1.48072
rhand -7.93981 13.5421
rfingers 7.12502
rthumb 17.9668 -15.648
lclavicle 1.59028e-015 1.35174e-014
lhumerus -22.7692 -2.56262 82.436
lradius 49.525
lwrist -10.093
lhand -39.7555 -12.6289
lfingers 7.12502
lthumb -12.732 16.9629
rfemur -15.2005 -3.89231 16.8214
rtibia 43.1846
rfoot -18.8815 10.9963
rtoes -11.5183
lfemur -42.6884 9.28061 -17.222
ltibia 91.9343
lfoot -3.16046 -0.496749
ltoes -9.50257
6
root -14.3829 18.6933 1.68015 329.794 95.9865 335.302
lowerback 8.85829 -1.29045 4.71872
upperback 17.1841 -0.127713 -0.801708
thorax 13.9358 1.24729 -3.35581
lowerneck 12.3998 -1.91259 5.74682
upperneck -9.04455 -2.21994 -5.56634
head -4.86671 -0.924117 -2.4954
rclavicle -8.74653e-015 1.35174e-014
rhumerus -21.8652 -19.8879 -82.5334
rradius 46.7926
rwrist 1.31872
rhand -7.90432 13.5812
rfingers 7.12502
rthumb 18.0009 -15.6058
lclavicle -8.74653e-015 1.35174e-014
lhumerus -22.8174 -2.63873 82.5077
lradius 49.6356
lwrist -10.1315
lhand -39.8112 -12.6228
lfingers 7.12502
lthumb -12.7857 16.9656
rfemur -14.9692 -3.87345 16.9049
rtibia 43.1396
rfoot -18.9695 11.0068
rtoes -11.3503
lfemur -43.3674 9.38954 -17.3378
ltibia 91.4593
lfoot -3.58468 0.139239
ltoes -9.35989
7
root -14.3468 18.6928 1.68183 330.103 95.964 335.705
lowerback 8.97287 -1.32268 4.90573
upperback 17.2318 -0.162242 -0.707386
thorax 13.927 1.25161 -3.35406
lowerneck 12.2999 -1.82482 5.66614
upperneck -8.92983 -2.14589 -5.83107
head -4.81267 -0.868492 -2.57126
rclavicle -7.95139e-016 -1.31198e-014
rhumerus -21.8339 -19.8257 -82.5072
rradius 46.9782
rwrist 1.18296
rhand -7.92301 13.6627
rfingers 7.12502
rthumb 17.9829 -15.5259
lclavicle -7.95139e-016 -1.31198e-014
lhumerus -22.9046 -2.68948 82.5698
lradius 49.7419
lwrist -10.1733
lhand -39.8655 -12.6543
lfingers 7.12502
lthumb -12.8381 16.9309
rfemur -14.7005 -3.86502 16.9689
rtibia 43.0801
rfoot -19.1092 10.9793
rtoes -11.5172
lfemur -43.9783 9.51463 -17.4635
ltibia 90.8899
lfoot -3.97373 0.729655
ltoes -9.98655
8
root -14.3102 18.6917 1.68293 330.665 95.9431 336.353
lowerback 9.06623 -1.35931 5.12386
upperback 17.2851 -0.201802 -0.620922
thorax 13.9386 1.25932 -3.37816
lowerneck 12.1302 -1.72958 5.6158
upperneck -8.74215 -2.05518 -6.0873
head -4.72372 -0.808042 -2.65029
rclavicle -1.59028e-015 1.35174e-014
rhumerus -21.7946 -19.7705 -82.4991
rradius 47.1516
rwrist 1.0566
rhand -7.8626 13.7135
rfingers 7.12502
rthumb 18.041 -15.4698
lclavicle -1.59028e-015 1.35174e-014
lhumerus -22.941 -2.75505 82.6052
lradius 49.8182
lwrist -10.2492
lhand -39.9351 -12.615
lfingers 7.12502
lthumb -12.9052 16.966
rfemur -14.4319 -3.83545 17.0548
rtibia 43.012
rfoot -19.2263 10.9625
rtoes -11.2894
lfemur -44.5467 9.60449 -17.5642
ltibia 90.239
lfoot -4.40161 1.27233
ltoes -11.3349
9
root -14.2736 18.6916 1.68349 331.264 95.9288 337.046
lowerback 9.16306 -1.41218 5.30395
upperback 17.3353 -0.266472 -0.503546
thorax 13.9403 1.24614 -3.34719
lowerneck 12.068 -1.62469 5.45899
upperneck -8.63026 -1.96397 -6.32989
head -4.67472 -0.742791 -2.70751
rclavicle 1.03368e-014 7.95139e-015
rhumerus -21.7496 -19.6502 -82.4518
rradius 47.3152
rwrist 0.931002
rhand -7.82205 13.7433
rfingers 7.12502
rthumb 18.0801 -15.4364
lclavicle 1.03368e-014 7.95139e-015
lhumerus -23.0108 -2.71553 82.7001
lradius 49.8997
lwrist -10.3472
lhand -39.9871 -12.5751
lfingers 7.12502
lthumb -12.9554 17.0027
rfemur -14.147 -3.81154 17.1395
rtibia 42.9345
rfoot -19.3415 10.9452
rtoes -11.1643
lfemur -45.0609 9.69535 -17.6591
ltibia 89.5179
lfoot -4.7854 1.7947
ltoes -12.9641
10
root -14.236 18.6921 1.68392 331.535 95.8975 337.378
lowerback 9.22552 -1.43916 5.47687
upperback 17.374 -0.296655 -0.42888
thorax 13.9525 1.25193 -3.35922
lowerneck 11.949 -1.54244 5.43023
upperneck -8.45616 -1.8846 -6.60585
head -4.5994 -0.687327 -2.79473
rclavicle -1.35174e-014 -1.59028e-014
rhumerus -21.7065 -19.5848 -82.4772
rradius 47.4365
rwrist 0.825883
rhand -7.81016 13.7826
rfingers 7.12502
rthumb 18.0915 -15.396
lclavicle -1.35174e-014 -1.59028e-014
lhumerus -23.0444 -2.72494 82.7179
lradius 49.9335
lwrist -10.4447
lhand -39.9905 -12.6114
lfingers 7.12502
lthumb -12.9586 16.9662
rfemur -13.9071 -3.78279 17.1993
rtibia 42.8557
rfoot -19.4688 10.9083
rtoes -11.3357
lfemur -45.551 9.79755 -17.7768
ltibia 88.7244
lfoot -5.13064 2.35601
ltoes -14.004
